<?xml version="1.0" standalone="no"?>
<!DOCTYPE svg PUBLIC "-//W3C//DTD SVG 20010904//EN"
 "http://www.w3.org/TR/2001/REC-SVG-20010904/DTD/svg10.dtd">
<svg version="1.0" xmlns="http://www.w3.org/2000/svg"
 width="3437.000000pt" height="3433.000000pt" viewBox="0 0 3437.000000 3433.000000"
 preserveAspectRatio="xMidYMid meet">

<g transform="translate(0.000000,3433.000000) scale(0.100000,-0.100000)"
fill="#000000" stroke="none">
<path d="M16625 34313 c-1694 -56 -3338 -350 -4915 -879 -3269 -1097 -6143
-3165 -8232 -5924 -2268 -2996 -3481 -6619 -3478 -10390 l1 -255 58 230 c188
738 420 1369 751 2040 412 835 918 1584 1564 2315 131 149 691 710 803 805
l71 60 52 135 c919 2368 2360 4392 4300 6041 2398 2037 5407 3257 8550 3469
479 32 1252 41 1700 20 3558 -168 6826 -1538 9425 -3950 193 -180 686 -675
851 -855 632 -692 1190 -1426 1677 -2207 142 -228 357 -597 357 -614 0 -6 36
-71 79 -143 183 -302 544 -1066 746 -1581 213 -539 377 -1350 425 -2095 13
-206 13 -744 0 -950 -91 -1412 -528 -2712 -1305 -3885 -316 -477 -634 -860
-1066 -1285 -1385 -1361 -3186 -2152 -5134 -2255 -123 -6 -2112 -10 -5602 -10
l-5413 0 -62 24 c-550 207 -976 725 -1100 1336 -20 101 -23 144 -23 350 0 205
3 249 23 348 33 163 73 279 152 437 86 174 189 313 337 456 248 240 538 384
903 450 48 9 618 14 2151 18 l2086 6 -642 1110 c-869 1503 -1782 3082 -2241
3878 l-379 657 -2250 -3 c-2049 -3 -2261 -5 -2374 -20 -412 -56 -734 -168
-1001 -346 -58 -38 -140 -100 -183 -138 -84 -74 -197 -199 -197 -219 0 -7 231
-412 514 -901 282 -488 757 -1309 1054 -1823 l540 -935 -661 -6 c-719 -6 -776
-10 -1067 -69 -995 -201 -1858 -854 -2317 -1755 -187 -367 -290 -697 -349
-1115 -22 -156 -31 -755 -15 -957 64 -794 390 -1511 945 -2081 323 -331 677
-575 1086 -750 297 -127 564 -198 960 -254 116 -16 14660 -24 15090 -8 727 27
1375 114 1945 260 2477 634 4634 2158 6064 4285 975 1450 1559 3082 1726 4825
34 360 40 504 39 1000 0 527 -9 724 -55 1140 -105 968 -365 1993 -692 2730
-791 1786 -1837 3368 -3182 4810 -230 246 -733 742 -975 962 -1425 1290 -3009
2314 -4735 3060 -938 406 -1943 738 -2916 963 -1083 250 -2129 389 -3274 435
-219 9 -967 11 -1190 3z"/>
<path d="M10435 24243 c-731 -35 -1385 -129 -2050 -294 -1398 -348 -2687 -980
-3839 -1881 -211 -165 -360 -300 -641 -582 -1732 -1734 -2807 -3998 -3050
-6421 -13 -132 -30 -325 -37 -430 -17 -248 -17 -1069 0 -1310 73 -1029 232
-1841 542 -2767 107 -320 145 -412 336 -811 1091 -2288 2747 -4373 4744 -5972
1428 -1143 2998 -2039 4695 -2678 2971 -1118 6247 -1388 9386 -771 3718 730
7099 2685 9610 5559 1556 1780 2741 3892 3445 6140 458 1461 712 2938 774
4500 10 262 14 1132 5 1123 -3 -3 -19 -71 -35 -151 -138 -684 -353 -1372 -628
-2017 -119 -279 -374 -791 -522 -1049 -530 -924 -1169 -1728 -1955 -2461
l-180 -168 -34 -89 c-116 -299 -347 -815 -521 -1163 -716 -1430 -1646 -2717
-2800 -3870 -418 -418 -774 -739 -1210 -1089 -2296 -1846 -5030 -2944 -7980
-3206 -730 -65 -1612 -72 -2355 -19 -1764 124 -3475 555 -5070 1276 -395 179
-996 490 -1375 713 -376 221 -865 541 -1213 794 -1750 1276 -3216 2923 -4259
4786 -410 732 -732 1440 -1022 2250 -83 230 -106 322 -150 605 -104 660 -123
1367 -55 2029 171 1680 862 3232 2005 4501 143 159 503 515 659 651 1199 1045
2638 1695 4205 1899 454 58 -32 54 6063 57 l5569 3 91 -36 c468 -184 856 -620
1018 -1141 56 -178 63 -243 64 -523 0 -240 -2 -275 -23 -370 -71 -322 -216
-599 -435 -827 -238 -248 -528 -409 -875 -486 -97 -21 -100 -21 -2208 -27
l-2111 -5 913 -1580 c503 -869 1237 -2139 1631 -2822 l718 -1243 2221 0 c1444
0 2258 4 2325 10 439 44 791 159 1087 357 109 72 286 230 353 314 l30 38 -274
473 c-954 1647 -1837 3180 -1837 3188 0 5 300 10 698 13 662 3 704 4 837 26
409 65 787 191 1120 373 142 77 362 223 495 329 130 103 420 392 522 519 408
513 656 1118 724 1760 24 231 15 898 -14 1090 -116 756 -434 1386 -966 1915
-381 379 -824 650 -1329 814 -192 62 -362 101 -607 138 -109 17 -539 18 -7640
18 -4139 1 -7552 0 -7585 -2z"/>
</g>
</svg>
